<?xml version="1.0" encoding="UTF-8"?>
<svg width="417px" height="122px" viewBox="0 0 417 122" version="1.1" xmlns="http://www.w3.org/2000/svg" xmlns:xlink="http://www.w3.org/1999/xlink">
    <!-- Generator: Sketch 49.1 (51147) - http://www.bohemiancoding.com/sketch -->
    <title>DockerCon Copy</title>
    <desc>Created with Sketch.</desc>
    <defs>
        <path d="M16.328125,0.08984375 L363.111942,0.08984375 C371.948498,0.08984375 379.111942,7.25328775 379.111942,16.0898437 L379.111942,88.4257812 C379.111942,97.2623372 371.948498,104.425781 363.111942,104.425781 L16.328125,104.425781 C7.491569,104.425781 0.328125,97.2623372 0.328125,88.4257812 L0.328125,16.0898438 C0.328125,7.25328775 7.491569,0.08984375 16.328125,0.08984375 Z" id="path-1"></path>
        <mask id="mask-2" maskContentUnits="userSpaceOnUse" maskUnits="objectBoundingBox" x="0" y="0" width="378.783817" height="104.335938" fill="white">
            <use xlink:href="#path-1"></use>
        </mask>
        <polygon id="path-3" points="0 58.1117618 223.150429 58.1117618 223.150429 0.993236137 0 0.993236137"></polygon>
        <rect id="path-5" x="0" y="0.0526145247" width="164.297622" height="124.046634"></rect>
        <polygon id="path-7" points="0.203535496 0.278412025 268.07209 0.278412025 268.07209 131.760357 0.203535496 131.760357"></polygon>
        <polygon id="path-9" points="0.636115774 0.363049124 284.642809 0.363049124 284.642809 130.771492 0.636115774 130.771492"></polygon>
        <rect id="path-11" x="0" y="0.05859375" width="182.96875" height="138.143555"></rect>
        <polygon id="path-13" points="0.226665698 0.310051353 298.536366 0.310051353 298.536366 146.733881 0.226665698 146.733881"></polygon>
        <path d="M147.96582,7.078125 L147.96582,24.7178624 C164.297201,29.8714489 172.825846,32.4482422 173.551758,32.4482422 C174.277669,32.4482422 182.316962,32.4482422 197.669637,32.4482422 L197.669637,59.096533 L147.219266,59.096533 L147.219266,75.297549 C123.934205,77.2016442 112.291674,77.2016442 112.291674,75.297549 C112.291674,73.3934538 112.291674,68.4221732 112.291674,60.383707 C37.9473107,60.383707 0.775128922,60.383707 0.775128922,60.383707 C0.775128922,60.383707 0.775128922,71.3451074 0.775128922,93.2679083 L210.725169,93.2679083 L210.725169,0.110838745 L147.96582,7.078125 Z" id="path-15"></path>
    </defs>
    <g id="DockerCon2018" stroke="none" stroke-width="1" fill="none" fill-rule="evenodd">
        <g id="DockerLandingFlag" transform="translate(-1547.000000, -685.000000)">
            <g id="DockerCon-Copy" transform="translate(1522.000000, 668.000000)">
                <g id="Group-4" transform="translate(44.000000, 32.000000)">
                    <use id="Rectangle" stroke="#FFFFFF" mask="url(#mask-2)" stroke-width="4" fill="#292B44" opacity="0" stroke-dasharray="4,5" xlink:href="#path-1"></use>
                    <g id="Page-1" transform="translate(94.600140, 16.503906)">
                        <mask id="mask-4" fill="white">
                            <use xlink:href="#path-3"></use>
                        </mask>
                        <g id="Clip-85"></g>
                        <polygon id="Fill-88" fill="#FF827B" mask="url(#mask-4)" points="21.8140554 22.1786988 25.5637651 22.1786988 25.5637651 20.4736534 21.8140554 20.4736534"></polygon>
                        <polygon id="Fill-89" fill="#FF827B" opacity="0" mask="url(#mask-4)" points="27.6709908 22.1786988 31.4197074 22.1786988 31.4197074 20.4736534 27.6709908 20.4736534"></polygon>
                        <polygon id="Fill-89-Copy" fill="#FF827B" opacity="0" mask="url(#mask-4)" points="34.2259322 22.1786988 37.9746489 22.1786988 37.9746489 20.4736534 34.2259322 20.4736534"></polygon>
                        <polygon id="Fill-89-Copy-2" fill="#FF827B" opacity="0" mask="url(#mask-4)" points="40.2259322 22.1786988 43.9746489 22.1786988 43.9746489 20.4736534 40.2259322 20.4736534"></polygon>
                        <polygon id="Fill-89-Copy-3" fill="#FF827B" opacity="0" mask="url(#mask-4)" points="46.2259322 22.1786988 49.9746489 22.1786988 49.9746489 20.4736534 46.2259322 20.4736534"></polygon>
                        <polygon id="Fill-89-Copy-4" fill="#FF827B" opacity="0" mask="url(#mask-4)" points="52.2259322 22.1786988 55.9746489 22.1786988 55.9746489 20.4736534 52.2259322 20.4736534"></polygon>
                        <polygon id="Fill-89-Copy-5" fill="#FF827B" opacity="0" mask="url(#mask-4)" points="58.2259322 22.1786988 61.9746489 22.1786988 61.9746489 20.4736534 58.2259322 20.4736534"></polygon>
                        <polygon id="Fill-89-Copy-6" fill="#FF827B" opacity="0" mask="url(#mask-4)" points="64.2259322 22.1786988 67.9746489 22.1786988 67.9746489 20.4736534 64.2259322 20.4736534"></polygon>
                        <path d="M150.879143,57.1771149 C150.986391,57.2843629 151.040015,57.4134578 151.040015,57.5643995 C151.040015,57.7143482 150.986391,57.8444361 150.879143,57.9516842 C150.771895,58.0589322 150.638828,58.1115632 150.481928,58.1115632 L146.505806,58.1115632 C146.347913,58.1115632 146.216832,58.0589322 146.112563,57.9516842 C146.009287,57.8444361 145.956656,57.7143482 145.956656,57.5643995 C145.956656,57.4065066 146.007301,57.2784047 146.107598,57.1771149 L149.160195,53.6091311 C149.611034,53.0947376 149.836454,52.6468777 149.836454,52.2665443 C149.836454,51.8008097 149.716296,51.4284206 149.476974,51.1483841 C149.236659,50.8683475 148.908957,50.7293222 148.492874,50.7293222 C148.227733,50.7293222 147.984439,50.7988348 147.761998,50.9398462 C147.540551,51.0788714 147.366769,51.2675486 147.240654,51.5028984 C147.115531,51.7392414 147.05297,51.993459 147.05297,52.2665443 C147.05297,52.4095417 147.001332,52.5346644 146.897063,52.6429055 C146.793787,52.7491605 146.662706,52.8037776 146.505806,52.8037776 C146.353871,52.8037776 146.224776,52.7491605 146.118521,52.6429055 C146.011273,52.5346644 145.956656,52.4095417 145.956656,52.2665443 C145.956656,51.7869072 146.067876,51.3529498 146.290317,50.9656651 C146.512757,50.5783805 146.814641,50.274511 147.197953,50.0520706 C147.581266,49.8306232 148.013237,49.719403 148.492874,49.719403 C148.973504,49.719403 149.394552,49.823672 149.756018,50.0312168 C150.117483,50.2387617 150.39752,50.5346869 150.594141,50.9170063 C150.790763,51.3013118 150.890067,51.7511578 150.890067,52.2665443 C150.890067,52.5813372 150.798707,52.9090396 150.614995,53.2496515 C150.433269,53.5902633 150.204871,53.9149866 149.933771,54.2218352 L147.472031,57.0162428 L150.481928,57.0162428 C150.638828,57.0162428 150.771895,57.0708599 150.879143,57.1771149" id="Fill-95" fill="#F0EFF0" mask="url(#mask-4)"></path>
                        <path d="M153.592519,51.6698281 C153.345253,52.2398316 153.222116,52.9865958 153.222116,53.9101207 C153.222116,54.8415899 153.347239,55.5883542 153.597484,56.1514064 C153.848723,56.7134657 154.210188,56.9944953 154.683867,56.9944953 C155.163504,56.9944953 155.526956,56.7124726 155.774222,56.1454482 C156.020496,55.5804099 156.144625,54.8346387 156.144625,53.9101207 C156.144625,52.9935471 156.019503,52.2487689 155.768264,51.6747932 C155.517026,51.1018106 155.156553,50.8158158 154.683867,50.8158158 C154.203237,50.8158158 153.839785,51.1008176 153.592519,51.6698281 M156.069155,50.213042 C156.457432,50.5496817 156.750378,51.033291 156.950972,51.6638698 C157.151565,52.2944487 157.251862,53.043199 157.251862,53.9101207 C157.251862,54.7780355 157.151565,55.5267858 156.950972,56.1573647 C156.750378,56.7869504 156.457432,57.2715528 156.069155,57.6071994 C155.68187,57.9438392 155.2211,58.1116625 154.683867,58.1116625 C153.866597,58.1116625 153.235025,57.7432456 152.786172,57.0054187 C152.338313,56.2685849 152.114879,55.2358258 152.114879,53.9101207 C152.114879,52.5854087 152.338313,51.5536427 152.786172,50.8158158 C153.235025,50.0769959 153.866597,49.7085789 154.683867,49.7085789 C155.2211,49.7085789 155.68187,49.8764023 156.069155,50.213042" id="Fill-96" fill="#F0EFF0" mask="url(#mask-4)"></path>
                        <path d="M158.283231,51.4176958 C158.126331,51.4176958 157.99525,51.3670509 157.890981,51.2677472 C157.787705,51.1664573 157.735074,51.0373625 157.735074,50.8794695 C157.735074,50.7583189 157.763872,50.6520639 157.821469,50.5636836 C157.879065,50.4733171 157.968438,50.4067836 158.090582,50.36309 L159.766829,49.7623023 C159.85223,49.7344972 159.919757,49.7196017 159.970402,49.7196017 C160.127302,49.7196017 160.256397,49.7722326 160.357686,49.8745155 C160.45699,49.9787844 160.507635,50.1138376 160.507635,50.2786818 L160.507635,57.5636051 C160.507635,57.7145468 160.455004,57.8446347 160.346763,57.9518828 C160.239515,58.0581378 160.106448,58.1117618 159.949548,58.1117618 C159.805558,58.1117618 159.680435,58.0581378 159.573187,57.9518828 C159.464946,57.8446347 159.412315,57.7145468 159.412315,57.5636051 L159.412315,51.0095574 L158.627815,51.342225 C158.505671,51.3928699 158.390479,51.4176958 158.283231,51.4176958" id="Fill-97" fill="#F0EFF0" mask="url(#mask-4)"></path>
                        <path d="M163.952482,52.598914 C164.156055,52.8213544 164.408286,52.9325746 164.71017,52.9325746 C165.010067,52.9325746 165.261306,52.8163892 165.462892,52.5830254 C165.662493,52.3506546 165.76279,52.069625 165.76279,51.7399365 C165.76279,51.4241506 165.662493,51.1649678 165.462892,50.960402 C165.261306,50.7568294 165.010067,50.6545465 164.71017,50.6545465 C164.401335,50.6545465 164.147118,50.7598085 163.946524,50.9713255 C163.74593,51.1818494 163.645634,51.4539417 163.645634,51.7826371 C163.645634,52.1053743 163.747917,52.3764736 163.952482,52.598914 M165.710159,54.4419916 C165.444025,54.1589759 165.111357,54.0179646 164.71017,54.0179646 C164.302031,54.0179646 163.964399,54.1629481 163.699258,54.452915 C163.43511,54.743875 163.302043,55.1073268 163.302043,55.5442633 C163.302043,55.8312511 163.362618,56.0944061 163.484762,56.3337281 C163.605912,56.5740432 163.774729,56.7637134 163.990218,56.9037317 C164.204714,57.04375 164.444036,57.1132626 164.71017,57.1132626 C164.974318,57.1132626 165.21364,57.0417639 165.424164,56.8977734 C165.635681,56.7557691 165.802511,56.5591476 165.923662,56.3128743 C166.045805,56.064615 166.106381,55.7955018 166.106381,55.5015627 C166.106381,55.0785287 165.974307,54.7260004 165.710159,54.4419916 M166.874992,54.2711892 C167.079557,54.6326548 167.18184,55.0388072 167.18184,55.4906393 C167.18184,55.9772276 167.074592,56.4201224 166.859103,56.8173374 C166.644607,57.2145524 166.348682,57.5283523 165.972321,57.7567509 C165.595959,57.9881286 165.174911,58.102328 164.71017,58.102328 C164.243442,58.102328 163.821401,57.9891217 163.442061,57.7637022 C163.062721,57.5382826 162.764809,57.229448 162.550313,56.8391842 C162.334824,56.4479274 162.227576,56.0099979 162.227576,55.5224165 C162.227576,55.0705844 162.328866,54.6614529 162.533432,54.292043 C162.737997,53.923626 163.019027,53.6277009 163.377514,53.4052604 C163.126275,53.2195624 162.93164,52.9871916 162.791621,52.706162 C162.651603,52.4281115 162.58209,52.123249 162.58209,51.7935605 C162.58209,51.3923734 162.675436,51.0289216 162.861134,50.7022123 C163.047825,50.377489 163.304029,50.1212853 163.629745,49.9336012 C163.955461,49.7479032 164.322885,49.6545577 164.731024,49.6545577 C165.126253,49.6545577 165.48176,49.7469102 165.800525,49.9296291 C166.11929,50.112348 166.370529,50.3635865 166.552255,50.6863237 C166.735966,51.0090609 166.827326,51.3705265 166.827326,51.7717137 C166.827326,52.1083534 166.75682,52.4161951 166.617795,52.6962316 C166.477777,52.9752752 166.283141,53.208639 166.031903,53.3953301 C166.390389,53.6167774 166.671419,53.9077374 166.874992,54.2711892" id="Fill-98" fill="#F0EFF0" mask="url(#mask-4)"></path>
                        <path d="M222.531071,32.1960642 C221.859778,31.7482043 220.318583,31.58336 219.132897,31.8067935 C218.979969,30.6896263 218.357334,29.7214147 217.224278,28.8455556 L216.573839,28.4106051 L216.138888,29.0630308 C215.582787,29.9011545 215.30573,31.0630084 215.396096,32.1781895 C215.436811,32.5704393 215.565906,33.2715238 215.970072,33.8882001 C215.565906,34.1046823 214.76949,34.4035866 213.718856,34.3827328 L193.51948,34.3827328 L193.479758,34.6160966 C193.290088,35.7352499 193.295053,39.229749 195.563151,41.9159155 C197.288057,43.9576007 199.873927,44.9933388 203.248268,44.9933388 C210.564969,44.9933388 215.977023,41.6249555 218.512248,35.5028792 C219.509258,35.5237329 221.655212,35.5088374 222.758477,33.4026048 C222.787275,33.354939 222.852815,33.2278302 223.045464,32.8296221 L223.150726,32.6101608 L222.531071,32.1960642 Z M206.598777,27.1236285 L209.670242,27.1236285 L209.670242,24.3312069 L206.598777,24.3312069 L206.598777,27.1236285 Z M206.598777,30.4741371 L209.670242,30.4741371 L209.670242,27.6817156 L206.598777,27.6817156 L206.598777,30.4741371 Z M202.969225,30.4741371 L206.041683,30.4741371 L206.041683,27.6817156 L202.969225,27.6817156 L202.969225,30.4741371 Z M199.339673,30.4741371 L202.412131,30.4741371 L202.412131,27.6817156 L199.339673,27.6817156 L199.339673,30.4741371 Z M195.709127,33.8246457 L198.781585,33.8246457 L198.781585,31.0322242 L195.709127,31.0322242 L195.709127,33.8246457 Z M199.339673,33.8246457 L202.412131,33.8246457 L202.412131,31.0322242 L199.339673,31.0322242 L199.339673,33.8246457 Z M202.969225,33.8246457 L206.041683,33.8246457 L206.041683,31.0322242 L202.969225,31.0322242 L202.969225,33.8246457 Z M206.598777,33.8246457 L209.670242,33.8246457 L209.670242,31.0322242 L206.598777,31.0322242 L206.598777,33.8246457 Z M210.228329,33.8246457 L213.300787,33.8246457 L213.300787,31.0322242 L210.228329,31.0322242 L210.228329,33.8246457 Z" id="Fill-99" fill="#93D6FF" mask="url(#mask-4)"></path>
                        <path d="M173.170055,28.192832 C174.805588,26.9267091 176.410337,26.5285011 178.623817,26.5285011 C179.915759,26.5285011 181.143154,26.7807326 182.306,27.2851957 C183.468847,27.7906518 184.492669,28.4758477 185.378459,29.3427695 C186.265241,30.2106843 186.966326,31.2325199 187.482705,32.4062902 C188.000078,33.5810536 188.257274,34.833274 188.257274,36.1619582 L188.257274,45.260168 C188.257274,45.8013735 188.070583,46.2591638 187.695215,46.635525 C187.318854,47.0108932 186.867022,47.1985773 186.338726,47.1985773 C185.796527,47.1985773 185.338737,47.0108932 184.963369,46.635525 C184.588001,46.2591638 184.40131,45.8013735 184.40131,45.260168 L184.40131,36.1619582 C184.40131,35.3744794 184.246396,34.6297013 183.939547,33.9286168 C183.631706,33.2275323 183.216616,32.6158212 182.693285,32.0934834 C182.169954,31.5691596 181.558243,31.1540699 180.857159,30.8472213 C180.156074,30.5393797 179.411296,30.3854589 178.623817,30.3854589 C177.824422,30.3854589 177.077658,30.5354075 176.381539,30.838284 C175.687405,31.1401674 175.074701,31.5552571 174.546405,32.083553 C174.017116,32.611849 173.602027,33.2275323 173.300143,33.9286168 C172.99826,34.6297013 172.848311,35.3744794 172.848311,36.1619582 L172.848311,45.260168 C172.848311,45.8013735 172.660627,46.2591638 172.284266,46.635525 C171.908898,47.0108932 171.457065,47.1985773 170.92877,47.1985773 C170.386571,47.1985773 169.928781,47.0108932 169.553413,46.635525 C169.178044,46.2591638 168.914889,45.8013735 168.914889,45.260168 L168.922834,28.5384091 C168.922834,28.00912 169.178044,27.4818171 169.553413,27.1004907 C169.928781,26.7201573 170.386571,26.5285011 170.92877,26.5285011 C171.457065,26.5285011 171.908898,26.7201573 172.284266,27.1004907 C172.660627,27.4818171 172.732126,27.6446753 173.170055,28.192832" id="Fill-100" fill="#F0EFF0" mask="url(#mask-4)"></path>
                        <path d="M133.352527,32.2988436 C133.93544,31.7179166 134.614678,31.2581402 135.39024,30.9215005 C136.166796,30.5838678 136.997968,30.4160444 137.882765,30.4160444 C138.683153,30.4160444 139.422966,30.5510975 140.102203,30.8202107 C140.781441,31.0893239 141.430888,31.4885249 142.04955,32.0138418 C142.413002,32.3087739 142.825112,32.4547505 143.285882,32.4547505 C143.832052,32.4547505 144.283884,32.2720316 144.641378,31.9046077 C144.999864,31.5361907 145.177618,31.0784004 145.177618,30.5262716 C145.177618,29.9513028 144.95915,29.4667005 144.523206,29.0754437 C142.655303,27.4101198 140.441822,26.5769613 137.882765,26.5769613 C135.069489,26.5769613 132.668324,27.5809223 130.67927,29.5888442 C128.690216,31.5977591 127.696186,34.0217637 127.696186,36.8638371 C127.696186,39.7039244 128.690216,42.1289221 130.67927,44.137837 C132.668324,46.1447658 135.069489,47.1497198 137.882765,47.1497198 C140.429906,47.1497198 142.642393,46.3165613 144.523206,44.6512374 C144.922408,44.2480642 145.123994,43.7763713 145.123994,43.237152 C145.123994,42.6860161 144.945247,42.2302119 144.586761,41.8687462 C144.228274,41.5072806 143.777435,41.3275408 143.231265,41.3275408 C142.770495,41.3394572 142.371294,41.4735173 142.030682,41.730714 C141.423936,42.2570239 140.781441,42.6522529 140.102203,42.9154078 C139.422966,43.1785627 138.683153,43.3106367 137.882765,43.3106367 C136.997968,43.3106367 136.166796,43.1428134 135.39024,42.8061737 C134.614678,42.4685409 133.93544,42.0087645 133.352527,41.4278376 C132.770607,40.8459176 132.312817,40.1646938 131.980149,39.3801942 C131.645496,38.5966876 131.478665,37.7575709 131.478665,36.8638371 C131.478665,35.9691103 131.645496,35.1309866 131.980149,34.34748 C132.312817,33.5629803 132.770607,32.8807636 133.352527,32.2988436" id="Fill-101" fill="#F0EFF0" mask="url(#mask-4)"></path>
                        <path d="M43.8598858,39.3528857 C43.5262252,40.130434 43.071414,40.8136439 42.4954522,41.4005291 C41.9194905,41.9884073 41.2422389,42.4531488 40.4666766,42.7967398 C39.6901212,43.1393378 38.8599418,43.3101402 37.9741524,43.3101402 C37.0774395,43.3101402 36.2403088,43.1393378 35.4637535,42.7967398 C34.6881912,42.4531488 34.0149117,41.9913864 33.4459012,41.4094664 C32.8739116,40.8275464 32.4230726,40.1453296 32.089412,39.361823 C31.7567444,38.5783164 31.5899141,37.7451579 31.5899141,36.8633406 C31.5899141,35.9815233 31.7567444,35.1493578 32.089412,34.3658512 C32.4230726,33.5813515 32.8739116,32.8991348 33.4459012,32.3172148 C34.0149117,31.7352948 34.6881912,31.2735323 35.4637535,30.9309344 C36.2403088,30.5883364 37.0774395,30.4165409 37.9741524,30.4165409 C38.8599418,30.4165409 39.6901212,30.5883364 40.4666766,30.9309344 C41.2422389,31.2735323 41.9194905,31.7382739 42.4954522,32.3271451 C43.071414,32.9150234 43.5262252,33.5972401 43.8598858,34.3747885 C44.1935464,35.1523369 44.3593837,35.9815233 44.3593837,36.8633406 C44.3593837,37.7451579 44.1935464,38.5743442 43.8598858,39.3528857 M45.1786396,29.5893407 C43.1647595,27.5814188 40.7635948,26.5774578 37.9741524,26.5774578 C35.160877,26.5774578 32.7597123,27.5814188 30.7706581,29.5893407 C28.7816039,31.5972626 27.7865803,34.0222602 27.7865803,36.8633406 C27.7865803,39.7044209 28.7816039,42.1294186 30.7706581,44.1373405 C32.7597123,46.1452624 35.160877,47.1502163 37.9741524,47.1502163 C40.7635948,47.1502163 43.1647595,46.1452624 45.1786396,44.1373405 C47.1676938,42.1532515 48.1627174,39.7292469 48.1627174,36.8633406 C48.1498079,35.4423039 47.8985694,34.1265291 47.4070159,32.9150234 C46.9154623,31.7015315 46.1736632,30.5942947 45.1786396,29.5893407" id="Fill-102" fill="#F0EFF0" mask="url(#mask-4)"></path>
                        <path d="M21.3187283,39.3528857 C20.9850677,40.130434 20.5302565,40.8136439 19.9542947,41.4005291 C19.378333,41.9884073 18.7020744,42.4531488 17.9255191,42.7967398 C17.1499567,43.1393378 16.3197774,43.3101402 15.4329949,43.3101402 C14.536282,43.3101402 13.6981583,43.1393378 12.923589,42.7967398 C12.1470337,42.4531488 11.4737542,41.9913864 10.9037507,41.4094664 C10.3337471,40.8275464 9.88191507,40.1453296 9.54726142,39.361823 C9.21558688,38.5783164 9.04875658,37.7451579 9.04875658,36.8633406 C9.04875658,35.9815233 9.21558688,35.1493578 9.54726142,34.3658512 C9.88191507,33.5813515 10.3337471,32.8991348 10.9037507,32.3172148 C11.4737542,31.7352948 12.1470337,31.2735323 12.923589,30.9309344 C13.6981583,30.5883364 14.536282,30.4165409 15.4329949,30.4165409 C16.3197774,30.4165409 17.1499567,30.5883364 17.9255191,30.9309344 C18.7020744,31.2735323 19.378333,31.7382739 19.9542947,32.3271451 C20.5302565,32.9150234 20.9850677,33.5972401 21.3187283,34.3747885 C21.6523889,35.1523369 21.8192192,35.9815233 21.8192192,36.8633406 C21.8192192,37.7451579 21.6523889,38.5743442 21.3187283,39.3528857 M23.7109557,17.7602776 C23.1647851,17.7602776 22.712953,17.9410104 22.3554595,18.3024761 C21.997966,18.6639418 21.8192192,19.119746 21.8192192,19.6708818 L21.8192192,28.8366182 C19.9751485,27.3311733 17.8470691,26.5774578 15.4329949,26.5774578 C12.6197195,26.5774578 10.2185548,27.5814188 8.22850758,29.5893407 C6.24044645,31.5972626 5.24542284,34.0222602 5.24542284,36.8633406 C5.24542284,39.7044209 6.24044645,42.1294186 8.22850758,44.1373405 C10.2185548,46.1452624 12.6197195,47.1502163 15.4329949,47.1502163 C18.2224373,47.1502163 20.6245951,46.1452624 22.6384752,44.1373405 C24.6265363,42.1532515 25.6215599,39.7292469 25.6215599,36.8633406 L25.6215599,19.6708818 C25.6215599,19.119746 25.4358619,18.6639418 25.0664519,18.3024761 C24.6960489,17.9410104 24.2442169,17.7602776 23.7109557,17.7602776" id="Fill-103" fill="#F0EFF0" mask="url(#mask-4)"></path>
                        <path d="M127.292516,29.9025447 C127.395792,29.6691809 127.44743,29.4179424 127.44743,29.1488292 C127.44743,28.6225193 127.276627,28.1935271 126.938994,27.8628456 C126.598383,27.5321641 126.170383,27.2729813 125.65599,27.0823181 C125.140603,26.892648 124.576558,26.760574 123.962861,26.6880822 C123.350157,26.6136044 122.778167,26.576862 122.243913,26.576862 C121.031414,26.576862 119.891407,26.7734835 118.824885,27.1647402 C117.756376,27.5569901 116.768304,28.1200423 115.858682,28.8548901 L115.858682,28.4874662 C115.858682,27.9611563 115.673977,27.5113103 115.304567,27.1379282 C114.934164,26.7645461 114.48829,26.576862 113.966945,26.576862 C113.433684,26.576862 112.981852,26.7645461 112.611449,27.1379282 C112.242039,27.5113103 112.056341,27.9611563 112.056341,28.4874662 L112.056341,45.2390163 C112.056341,45.7663192 112.242039,46.2161652 112.611449,46.5895474 C112.981852,46.9639225 113.433684,47.1496205 113.966945,47.1496205 C114.48829,47.1496205 114.934164,46.9639225 115.304567,46.5895474 C115.673977,46.2161652 115.858682,45.7663192 115.858682,45.2390163 L115.858682,36.8637378 C115.858682,35.969011 116.025512,35.1308873 116.359173,34.3473807 C116.692833,33.5638741 117.147644,32.8806643 117.723606,32.2987443 C118.298575,31.7168243 118.975826,31.2580409 119.752382,30.9214012 C120.527944,30.5847615 121.359117,30.4169381 122.243913,30.4169381 C123.141619,30.4169381 123.972791,30.5688729 124.73743,30.8747284 C125.039314,31.0097816 125.307434,31.0783011 125.536825,31.0783011 C125.803953,31.0783011 126.052212,31.0286493 126.282597,30.9303386 C126.513974,30.8330209 126.713575,30.6949887 126.883384,30.5172349 C127.053194,30.3394812 127.18924,30.1339225 127.292516,29.9025447" id="Fill-104" fill="#F0EFF0" mask="url(#mask-4)"></path>
                        <path d="M93.6456238,34.9531336 C93.8392661,34.2798541 94.1361843,33.6641709 94.5363784,33.1070768 C94.9375656,32.5499828 95.4092584,32.0723317 95.955429,31.6741237 C96.5015997,31.2769086 97.1013944,30.9670809 97.7577922,30.7476196 C98.4122039,30.5261723 99.0854833,30.4169381 99.7766375,30.4169381 C100.467792,30.4169381 101.138092,30.5261723 101.786545,30.7476196 C102.435992,30.9670809 103.028835,31.2769086 103.569048,31.6741237 C104.10926,32.0723317 104.581946,32.5499828 104.988098,33.1070768 C105.394251,33.6641709 105.701099,34.2798541 105.906658,34.9531336 L93.6456238,34.9531336 Z M106.980132,29.5897379 C104.967245,27.580823 102.56608,26.576862 99.7766375,26.576862 C96.9623691,26.576862 94.5612044,27.580823 92.5721502,29.5897379 C90.583096,31.5976598 89.5880724,34.0226574 89.5880724,36.8637378 C89.5880724,39.7038251 90.583096,42.1298158 92.5721502,44.1377377 C94.5612044,46.1456596 96.9623691,47.1496205 99.7766375,47.1496205 C102.334702,47.1496205 104.554141,46.316462 106.434954,44.6521311 C106.798406,44.2727908 106.980132,43.8130144 106.980132,43.2747881 C106.980132,42.7226592 106.801385,42.266855 106.443891,41.9053893 C106.086398,41.5449167 105.634566,41.3641839 105.087402,41.3641839 C104.614716,41.3761003 104.197641,41.5349863 103.833196,41.8418349 C103.263192,42.3314024 102.645523,42.6988263 101.977209,42.9441066 C101.31088,43.1883938 100.576033,43.3105374 99.7766375,43.3105374 C99.0725739,43.3105374 98.3963153,43.2013033 97.7478618,42.9798559 C97.0994083,42.7594016 96.5045788,42.4505669 95.9653594,42.0523589 C95.42614,41.6541508 94.9544472,41.1774928 94.5542531,40.6194057 C94.155052,40.0633047 93.8511825,39.4476214 93.6456238,38.774342 L108.053605,38.774342 C108.586866,38.774342 109.038699,38.5926161 109.408108,38.2321435 C109.779504,37.8706778 109.964209,37.4148736 109.964209,36.8637378 C109.964209,35.4427011 109.714957,34.1239472 109.218438,32.9044972 C108.72192,31.6870331 107.975155,30.5817824 106.980132,29.5897379 Z" id="Fill-105" fill="#F0EFF0" mask="url(#mask-4)"></path>
                        <path d="M162.454187,39.3528857 C162.12152,40.130434 161.665715,40.8136439 161.089754,41.4005291 C160.513792,41.9884073 159.83654,42.4531488 159.061971,42.7967398 C158.285416,43.1393378 157.454243,43.3101402 156.568454,43.3101402 C155.671741,43.3101402 154.83461,43.1393378 154.058055,42.7967398 C153.282493,42.4531488 152.609213,41.9913864 152.040203,41.4094664 C151.469206,40.8275464 151.017374,40.1453296 150.683713,39.361823 C150.351046,38.5783164 150.184216,37.7451579 150.184216,36.8633406 C150.184216,35.9815233 150.351046,35.1493578 150.683713,34.3658512 C151.017374,33.5813515 151.469206,32.8991348 152.040203,32.3172148 C152.609213,31.7352948 153.282493,31.2735323 154.058055,30.9309344 C154.83461,30.5883364 155.671741,30.4165409 156.568454,30.4165409 C157.454243,30.4165409 158.285416,30.5883364 159.061971,30.9309344 C159.83654,31.2735323 160.513792,31.7382739 161.089754,32.3271451 C161.665715,32.9150234 162.12152,33.5972401 162.454187,34.3747885 C162.787848,35.1523369 162.954678,35.9815233 162.954678,36.8633406 C162.954678,37.7451579 162.787848,38.5743442 162.454187,39.3528857 M163.772941,29.5893407 C161.760054,27.5814188 159.358889,26.5774578 156.568454,26.5774578 C153.755178,26.5774578 151.354014,27.5814188 149.36496,29.5893407 C147.375905,31.5972626 146.380882,34.0222602 146.380882,36.8633406 C146.380882,39.7044209 147.375905,42.1294186 149.36496,44.1373405 C151.354014,46.1452624 153.755178,47.1502163 156.568454,47.1502163 C159.358889,47.1502163 161.760054,46.1452624 163.772941,44.1373405 C165.762988,42.1532515 166.757019,39.7292469 166.757019,36.8633406 C166.744109,35.4423039 166.492871,34.1265291 166.001317,32.9150234 C165.510757,31.7015315 164.767965,30.5942947 163.772941,29.5893407" id="Fill-106" fill="#F0EFF0" mask="url(#mask-4)"></path>
                        <path d="M87.5321868,28.4876648 C87.5321868,28.2304681 87.4805489,27.9851878 87.377273,27.7528171 C87.273997,27.5194532 87.1379509,27.3148875 86.9681415,27.1381268 C86.7983321,26.9603731 86.5987315,26.8223409 86.3683468,26.7240302 C86.1379621,26.6257195 85.8887097,26.5770606 85.6215826,26.5770606 C85.2452214,26.5770606 84.9056025,26.6753713 84.6037191,26.8709997 L73.724993,34.0159048 L73.724993,19.6893523 C73.724993,19.151126 73.5383019,18.6943287 73.168892,18.3209466 C72.799482,17.9475645 72.3536082,17.7598804 71.8322635,17.7598804 C71.2980093,17.7598804 70.8471702,17.9475645 70.4767672,18.3209466 C70.1063642,18.6943287 69.9226523,19.151126 69.9226523,19.6893523 L69.9226523,45.2213403 C69.9226523,45.7476501 70.1063642,46.2004753 70.4767672,46.5808086 C70.8471702,46.960149 71.2980093,47.1498191 71.8322635,47.1498191 C72.3536082,47.1498191 72.799482,46.960149 73.168892,46.5808086 C73.5383019,46.2004753 73.724993,45.7476501 73.724993,45.2213403 L73.724993,38.5908287 L75.9434388,37.1201401 L84.3485085,46.6533004 C84.6881273,46.9839819 85.1121543,47.1498191 85.6215826,47.1498191 C85.8887097,47.1498191 86.1379621,47.1011603 86.3683468,47.0028496 C86.5987315,46.9055319 86.7983321,46.7674997 86.9681415,46.589746 C87.1379509,46.4119922 87.273997,46.2074265 87.377273,45.9740627 C87.4805489,45.7416919 87.5321868,45.4964116 87.5321868,45.2392149 C87.5321868,44.7367379 87.3564192,44.289871 87.0048839,43.8986143 L79.1817342,35.0079493 L86.8052833,30.0119774 C87.2898856,29.6812959 87.5321868,29.1728607 87.5321868,28.4876648" id="Fill-107" fill="#F0EFF0" mask="url(#mask-4)"></path>
                        <path d="M55.9490254,32.2988436 C56.5319384,31.7169236 57.2111761,31.2581402 57.9867384,30.9215005 C58.7632937,30.5838678 59.5934731,30.4160444 60.4792626,30.4160444 C61.2796508,30.4160444 62.0194638,30.5510975 62.6987015,30.8202107 C63.3779391,31.0893239 64.0273857,31.4875319 64.6460481,32.0138418 C65.0094998,32.3087739 65.4216104,32.4547505 65.8823798,32.4547505 C66.4285504,32.4547505 66.8803825,32.2720316 67.237876,31.9046077 C67.5963626,31.5361907 67.7741163,31.0784004 67.7741163,30.5262716 C67.7741163,29.9513028 67.555648,29.4667005 67.1197046,29.0754437 C65.251801,27.4101198 63.0383203,26.5769613 60.4792626,26.5769613 C57.6659873,26.5769613 55.2648225,27.5809223 53.2757684,29.5888442 C51.2867142,31.5977591 50.2926836,34.0217637 50.2926836,36.8638371 C50.2926836,39.7039244 51.2867142,42.1289221 53.2757684,44.137837 C55.2648225,46.1447658 57.6659873,47.1497198 60.4792626,47.1497198 C63.0264039,47.1497198 65.2388915,46.3165613 67.1197046,44.6512374 C67.5189056,44.2480642 67.7204923,43.7763713 67.7204923,43.237152 C67.7204923,42.6860161 67.5407525,42.2302119 67.183259,41.8687462 C66.8247724,41.5072806 66.3729403,41.3275408 65.8267697,41.3275408 C65.3669933,41.3394572 64.9667992,41.4735173 64.6271804,41.730714 C64.0204344,42.2570239 63.3779391,42.6522529 62.6987015,42.9154078 C62.0194638,43.1785627 61.2796508,43.3106367 60.4792626,43.3106367 C59.5934731,43.3106367 58.7632937,43.1428134 57.9867384,42.8061737 C57.2111761,42.4685409 56.5319384,42.0087645 55.9490254,41.4278376 C55.3671054,40.8459176 54.9093151,40.1637008 54.5756545,39.3801942 C54.2419939,38.5966876 54.0751636,37.7575709 54.0751636,36.8638371 C54.0751636,35.9691103 54.2419939,35.1309866 54.5756545,34.34748 C54.9093151,33.5629803 55.3671054,32.8807636 55.9490254,32.2988436" id="Fill-108" fill="#F0EFF0" mask="url(#mask-4)"></path>
                    </g>
                    <text id="register-now" font-family="Comfortaa-Bold, Comfortaa" font-size="12" font-weight="bold" fill="#FFFFFF">
                        <tspan x="150.390137" y="93.1542969">register now </tspan>
                    </text>
                    <g id="Group-6" transform="translate(232.866742, 77.503906)" fill="#FFFFFF" font-family="Comfortaa-Bold, Comfortaa" font-size="18" font-weight="bold">
                        <text id="&gt;" opacity="0.315387228">
                            <tspan x="0.899944799" y="18.4067383">&gt;</tspan>
                        </text>
                        <text id="&gt;-copy" opacity="0.58055933">
                            <tspan x="8.56982421" y="18.4067383">&gt;</tspan>
                        </text>
                        <text id="&gt;-copy-2">
                            <tspan x="15.8887142" y="18.4067383">&gt;</tspan>
                        </text>
                    </g>
                </g>
                <g id="Group-5" transform="translate(0.000000, 14.184317)">
                    <mask id="mask-6" fill="white">
                        <use xlink:href="#path-5"></use>
                    </mask>
                    <use id="Rectangle-5" fill-opacity="0" fill="#FFFFFF" xlink:href="#path-5"></use>
                    <g id="Page-1" mask="url(#mask-6)">
                        <g transform="translate(0.000000, 2.392207)">
                            <path d="M224.566806,70.6653615 L223.760297,71.7701776 L216.335067,71.7701776 L214.801555,70.7442315 L214.801555,54.1656293 L216.335067,53.3762933 L223.679519,53.3762933 L224.566806,54.6394854 L224.566806,70.6653615 Z M224.163551,98.6909272 L222.872373,99.9534833 L216.335067,99.9534833 L214.801555,99.2436532 L214.487347,84.5013229 C214.438371,82.1937392 216.337612,80.2964067 218.697351,80.2964067 L223.275628,80.2964067 L224.163551,81.4018589 L224.163551,98.6909272 Z M231.289202,86.6142632 L231.289202,71.3472054 L230.777183,70.3708711 L230.746017,48.9144136 L226.783435,45.0357903 L219.220183,45.0357903 L213.306841,45.0357903 C210.980812,45.0357903 209.095564,46.8803307 209.095564,49.1548399 L209.095564,70.0115037 L208.159301,71.2600668 L208.159301,97.900319 L207.308268,98.899551 L207.308268,134.662633 C207.308268,136.937778 209.193516,138.781683 211.519545,138.781683 L211.693186,138.781683 C214.019215,138.781683 215.904463,136.937778 215.904463,134.662633 L215.904463,110.901149 L216.747227,109.615059 L221.959008,109.615059 L223.771746,111.179102 L223.771746,134.809402 C223.771746,137.084547 225.656993,138.928452 227.982386,138.928452 C230.308415,138.928452 232.193027,137.084547 232.193027,134.809402 L232.193027,117.922487 L232.193027,99.227752 L231.289202,86.6142632 Z" id="Fill-1" fill="#FFFFFF"></path>
                            <path d="M229.262752,46.4977476 C229.63166,45.7459383 226.85658,43.7557428 226.85658,43.7557428 L226.85658,41.7833567 L225.426108,41.7833567 L225.426108,43.7557428 L221.941834,46.4977476 L217.455785,46.4977476 L214.203033,43.7557428 L214.203033,41.7833567 L212.991997,41.7833567 L212.991997,43.7557428 C212.991997,43.7557428 211.818488,44.5100963 211.56216,44.940701 C211.305196,45.3713058 210.071899,46.4977476 210.071899,46.4977476 L229.262752,46.4977476 Z" id="Fill-3" fill="#FFFFFF"></path>
                            <path d="M109.786271,42.6646654 L108.622302,44.2579667 L97.9163351,44.2579667 L95.7054308,42.778518 L95.7054308,18.8745462 L97.9163351,17.7360195 L108.505905,17.7360195 L109.786271,19.5570261 L109.786271,42.6646654 Z M109.204287,83.0740938 L107.342573,84.8957365 L97.9163351,84.8957365 L95.7054308,83.8710625 L95.2462039,62.3013883 C95.1787827,59.1453161 97.7757684,56.5515106 101.002442,56.5515106 L107.923921,56.5515106 L109.204287,58.1454479 L109.204287,83.0740938 Z M119.478377,59.2663644 L119.478377,43.6486323 L118.739924,42.2404211 L118.739924,11.3424607 C118.739924,8.23154789 116.16202,5.71025193 112.981778,5.71025193 L102.077364,5.71025193 L93.2362908,5.71025193 C90.0560487,5.71025193 87.4781445,8.23154789 87.4781445,11.3424607 L87.4781445,41.7220416 L86.1284497,43.5226947 L86.1284497,81.9349311 L84.9008763,83.3755808 L84.9008763,134.540601 C84.9008763,137.651514 87.4787805,140.17281 90.6590226,140.17281 L91.5380416,140.17281 C94.7182837,140.17281 97.2955519,137.651514 97.2955519,134.540601 L97.2955519,100.679914 L98.5104044,98.825833 L104.437104,98.825833 C105.460506,98.825833 106.449561,99.1915609 107.216635,99.8543233 C108.121096,100.634119 108.638839,101.756744 108.638839,102.935978 L108.638839,135.223267 C108.638839,138.33418 111.216744,140.855476 114.396986,140.855476 L115.02413,140.855476 C118.204372,140.855476 120.782276,138.33418 120.782276,135.223267 L120.782276,110.803897 L120.782276,83.8488008 L119.478377,59.2663644 Z" id="Fill-5" fill="#FFFFFF"></path>
                            <path d="M116.640837,7.32982204 C115.530933,5.71044275 112.820095,3.34625076 112.820095,3.34625076 L112.820095,0.480852608 L110.742124,0.480852608 L110.742124,3.34625076 L105.679179,7.32982204 L99.1615908,7.32982204 L94.435751,3.34625076 L94.435751,0.480852608 L92.6770771,0.480852608 L92.6770771,3.34625076 C92.6770771,3.34625076 91.4921189,4.44852268 90.9489335,5.23086224 C90.5329578,5.83001985 89.195348,7.32982204 89.195348,7.32982204 L116.640837,7.32982204 Z" id="Fill-7" fill="#FFFFFF"></path>
                            <g id="Group-11" stroke-width="1" fill="none" transform="translate(25.142728, 5.387966)">
                                <mask id="mask-8" fill="white">
                                    <use xlink:href="#path-7"></use>
                                </mask>
                                <g id="Clip-10"></g>
                                <path d="M267.203688,131.760357 C267.154077,131.760357 267.103829,131.755904 267.052309,131.747 C257.461335,130.081189 246.995794,126.78455 236.782764,122.21327 C232.367952,120.237704 228.463887,117.859519 228.425088,117.837257 C226.699489,116.781416 224.096143,115.089528 221.476895,113.002653 C221.227564,112.797209 215.55274,108.086634 210.14442,101.032857 C206.59527,96.4043331 192.766305,55.6495303 188.805632,43.8527402 C186.557201,54.7934091 183.544239,65.5858788 179.837349,75.9808182 C174.170794,91.8483182 168.186214,103.16998 159.825994,113.830152 C155.345032,119.538686 153.051442,122.31949 149.891553,123.133632 C134.885899,127.038969 114.515176,95.4858792 104.752469,80.325665 L101.807564,75.7747385 C90.6697205,58.6103357 78.0963152,39.2324845 67.1823603,4.8547032 C65.5896951,11.4963208 61.4025883,18.8312313 55.5356777,29.1059575 C52.1086487,35.1064383 48.2249371,41.9077041 43.8800903,50.2380303 C27.8109629,81.0297706 -2.44395246,127.302293 -13.2790374,129.714189 C-13.7401725,129.822317 -14.2127564,129.530371 -14.3170684,129.074324 C-14.4258327,128.616369 -14.1313423,128.162867 -13.6632106,128.059191 C-4.27195563,125.965956 24.6491662,83.3526194 42.3325845,49.4633234 C46.6939685,41.1069192 50.5840407,34.2922963 54.0180661,28.2784585 C60.8695797,16.280041 65.3950643,8.35487768 66.0648233,1.05113363 C66.101078,0.644062634 66.4267348,0.320950035 66.8427105,0.281515032 C67.243421,0.247804466 67.6415873,0.491411012 67.7611644,0.883216841 C78.8538489,37.2263877 91.8279647,57.2231141 103.273656,74.8632811 L106.223013,79.4186599 C115.759287,94.236044 135.600817,125.041141 149.448227,121.491991 C152.05857,120.817144 154.21223,118.193444 158.445768,112.794665 C166.68832,102.287781 172.596574,91.109866 178.195072,75.4185514 C182.239068,64.0879848 185.448568,52.2803818 187.737706,40.3188552 C187.810216,39.9384982 188.138417,39.6529125 188.534039,39.6287426 C188.961464,39.5778588 189.294117,39.8430909 189.416238,40.2126351 C195.704213,59.1185384 208.418821,95.9482864 211.53355,100.01518 C216.817204,106.904857 222.528283,111.646598 222.587436,111.693029 C225.122725,113.715027 227.663102,115.368117 229.343542,116.394699 C229.382341,116.418869 233.197995,118.73981 237.507224,120.668944 C247.586047,125.180436 257.907205,128.433188 267.355068,130.074828 C267.827652,130.156243 268.142496,130.596388 268.058537,131.058795 C267.98412,131.470319 267.617756,131.760357 267.203688,131.760357" id="Fill-9" fill="#FFFFFF" mask="url(#mask-8)"></path>
                            </g>
                            <g id="Group-14" stroke-width="1" fill="none" transform="translate(9.877500, 6.660063)">
                                <mask id="mask-10" fill="white">
                                    <use xlink:href="#path-9"></use>
                                </mask>
                                <g id="Clip-13"></g>
                                <path d="M263.604965,121.410132 C260.145191,119.456827 254.722714,114.602505 250.806131,110.889891 C241.681928,102.245357 239.232173,96.4509554 237.072886,91.3377621 L236.357744,89.6585943 C234.668497,85.7729745 233.066201,82.1118798 231.560307,78.6689496 C225.59344,65.0288912 221.188544,54.9596086 218.761472,47.8969269 C216.740803,62.6856888 212.640235,71.4733338 208.978835,79.3259877 C208.060177,81.2926494 207.163572,83.2109714 206.329975,85.1649122 C199.91764,100.161662 194.495164,106.170411 190.03608,110.068752 C185.370961,114.153455 174.438426,123.72662 162.137355,121.987664 C147.072749,119.872803 138.721656,102.008747 132.013183,87.6563139 C129.162697,81.5540653 126.268105,72.263942 120.502234,53.756205 C119.254674,49.7465557 118.402804,46.9059635 117.479736,43.8192205 C116.494289,40.5270338 115.425041,36.9518056 113.728863,31.4805171 C111.270918,23.5375444 108.702708,15.5169737 106.090392,7.60453135 C105.749518,7.59817087 105.53025,7.53202183 105.370839,7.22417439 C100.847488,19.7028084 89.4776767,38.8987498 70.8304302,65.5771649 C69.3358781,67.7149237 67.8104521,70.0842041 66.1949245,72.5908709 C56.2749296,87.985787 42.6872333,109.068884 4.98129734,128.61656 C4.4230456,128.906598 3.72617604,128.696066 3.43318838,128.140796 C3.13705032,127.58807 3.35442826,126.901774 3.91457025,126.611736 C41.0811569,107.343285 54.4779386,86.554042 64.2586856,71.3741103 C65.888075,68.8496341 67.4248425,66.4625443 68.9439678,64.2898029 C90.4013755,33.5883816 102.124032,12.9702359 104.779823,1.25295179 C104.905209,0.701497807 105.382181,0.296971009 105.9984,0.372024723 C106.984477,0.455983115 107.036143,1.2306901 107.101042,2.21274886 C107.125615,2.60455469 107.174761,3.35254764 107.228948,4.09354405 C107.340472,4.21121301 107.428054,4.35495995 107.47972,4.51397206 C110.372422,13.2112982 113.211567,22.061276 115.924696,30.8164825 C117.620874,36.2966757 118.694532,39.8789005 119.679978,43.1780836 C120.601157,46.2571941 121.450506,49.0895177 122.664672,52.9967632 C128.429913,71.5000479 131.309383,80.7418315 134.022512,86.5502257 C140.572203,100.561736 148.632199,117.803737 162.459326,119.744321 C173.714463,121.312816 184.084966,112.24849 188.514435,108.374319 C192.780713,104.641351 197.983922,98.862851 204.214793,84.2846212 C205.059731,82.3084187 205.965158,80.367835 206.895157,78.3770034 C210.923895,69.741374 215.487571,59.955769 217.114441,42.0516419 C217.166107,41.4963716 217.616615,41.0606784 218.181168,41.0225155 C218.781635,40.9741759 219.250415,41.3589852 219.375801,41.9034426 C220.912569,48.6143895 225.985981,60.2120965 233.666668,77.7702132 C235.172561,81.2131433 236.774857,84.8774183 238.464104,88.7649463 L239.189958,90.4657398 C241.365627,95.6145517 243.615646,100.937641 252.394565,109.257154 C257.798769,114.38116 262.235799,118.032078 264.88655,119.538241 C265.137322,119.720151 276.40128,128.419385 283.508593,128.505888 C284.143085,128.514793 284.64967,129.028084 284.642739,129.652047 C284.633918,130.273466 284.122922,130.771492 283.495362,130.771492 C275.594776,130.674177 264.090758,121.78858 263.604965,121.410132 Z" id="Fill-12" fill="#FFFFFF" mask="url(#mask-10)"></path>
                            </g>
                            <path d="M86.1294674,135.163788 C85.4896027,135.163788 84.9712232,134.657494 84.9712232,134.030986 L84.9712232,24.024503 C84.9712232,23.3979953 85.4896027,22.8917008 86.1294674,22.8917008 C86.7693321,22.8917008 87.2877116,23.3979953 87.2877116,24.024503 L87.2877116,134.030986 C87.2877116,134.657494 86.7693321,135.163788 86.1294674,135.163788" id="Fill-15" fill="#FFFFFF"></path>
                            <path d="M110.834097,116.841968 C110.194232,116.841968 109.675853,116.335038 109.675853,115.709166 L109.675853,39.578622 C109.675853,38.9521143 110.194232,38.4458198 110.834097,38.4458198 C111.473962,38.4458198 111.992341,38.9521143 111.992341,39.578622 L111.992341,115.709166 C111.992341,116.335038 111.473962,116.841968 110.834097,116.841968" id="Fill-17" fill="#FFFFFF"></path>
                            <path d="M108.506669,45.3905781 C107.866804,45.3905781 107.348424,44.8842835 107.348424,44.2577758 L107.348424,17.7364647 C107.348424,17.1105931 107.866804,16.6036625 108.506669,16.6036625 C109.146533,16.6036625 109.664913,17.1105931 109.664913,17.7364647 L109.664913,44.2577758 C109.664913,44.8842835 109.146533,45.3905781 108.506669,45.3905781" id="Fill-19" fill="#FFFFFF"></path>
                            <path d="M188.531101,134.314028 C188.370817,134.314028 188.241699,134.18809 188.241699,134.030986 L188.241699,112.684565 C188.241699,112.527461 188.370817,112.401523 188.531101,112.401523 C188.691385,112.401523 188.820503,112.527461 188.820503,112.684565 L188.820503,134.030986 C188.820503,134.18809 188.691385,134.314028 188.531101,134.314028" id="Fill-23" fill="#FFFFFF"></path>
                            <path d="M156.373383,134.314028 C156.213099,134.314028 156.083981,134.18809 156.083981,134.030986 L156.083981,118.700311 C156.083981,118.543207 156.213099,118.417269 156.373383,118.417269 C156.533667,118.417269 156.662785,118.543207 156.662785,118.700311 L156.662785,134.030986 C156.662785,134.18809 156.533667,134.314028 156.373383,134.314028" id="Fill-25" fill="#FFFFFF"></path>
                            <path d="M197.911225,134.314028 C197.750941,134.314028 197.621823,134.18809 197.621823,134.030986 L197.621823,94.3892681 C197.621823,94.2321641 197.750941,94.1062265 197.911225,94.1062265 C198.071509,94.1062265 198.200627,94.2321641 198.200627,94.3892681 L198.200627,134.030986 C198.200627,134.18809 198.071509,134.314028 197.911225,134.314028" id="Fill-31" fill="#FFFFFF"></path>
                            <path d="M202.428187,134.314028 C202.267902,134.314028 202.138785,134.18809 202.138785,134.030986 L202.138785,85.7644514 C202.138785,85.6073475 202.267902,85.4814099 202.428187,85.4814099 C202.589107,85.4814099 202.718225,85.6073475 202.718225,85.7644514 L202.718225,134.030986 C202.718225,134.18809 202.589107,134.314028 202.428187,134.314028" id="Fill-33" fill="#FFFFFF"></path>
                            <path d="M147.891359,134.314028 C147.730439,134.314028 147.601321,134.18809 147.601321,134.030986 L147.601321,105.967258 C147.601321,105.810154 147.730439,105.684216 147.891359,105.684216 C148.051644,105.684216 148.180761,105.810154 148.180761,105.967258 L148.180761,134.030986 C148.180761,134.18809 148.051644,134.314028 147.891359,134.314028" id="Fill-35" fill="#FFFFFF"></path>
                            <path d="M139.28238,134.314028 C139.122096,134.314028 138.992978,134.18809 138.992978,134.030986 L138.992978,88.92434 C138.992978,88.767236 139.122096,88.6412985 139.28238,88.6412985 C139.442665,88.6412985 139.571782,88.767236 139.571782,88.92434 L139.571782,134.030986 C139.571782,134.18809 139.442665,134.314028 139.28238,134.314028" id="Fill-37" fill="#FFFFFF"></path>
                            <path d="M129.902193,134.314028 C129.741908,134.314028 129.612791,134.18809 129.612791,134.030986 L129.612791,58.2718944 C129.612791,58.1147904 129.741908,57.9888528 129.902193,57.9888528 C130.062477,57.9888528 130.191595,58.1147904 130.191595,58.2718944 L130.191595,134.030986 C130.191595,134.18809 130.062477,134.314028 129.902193,134.314028" id="Fill-39" fill="#FFFFFF"></path>
                            <path d="M121.641641,134.314028 C121.481357,134.314028 121.352239,134.18809 121.352239,134.030986 L121.352239,30.6152368 C121.352239,30.4581328 121.481357,30.3321953 121.641641,30.3321953 C121.801925,30.3321953 121.931043,30.4581328 121.931043,30.6152368 L121.931043,134.030986 C121.931043,134.18809 121.801925,134.314028 121.641641,134.314028" id="Fill-41" fill="#FFFFFF"></path>
                            <path d="M61.96338,134.314028 C61.8024597,134.314028 61.6733419,134.18809 61.6733419,134.030986 L61.6733419,66.8235654 C61.6733419,66.6664615 61.8024597,66.5398878 61.96338,66.5398878 C62.1236642,66.5398878 62.252782,66.6664615 62.252782,66.8235654 L62.252782,134.030986 C62.252782,134.18809 62.1236642,134.314028 61.96338,134.314028" id="Fill-43" fill="#FFFFFF"></path>
                            <path d="M44.6527497,134.314028 C44.4924655,134.314028 44.3633476,134.18809 44.3633476,134.030986 L44.3633476,95.1391692 C44.3633476,94.9820652 44.4924655,94.8561276 44.6527497,94.8561276 C44.8130339,94.8561276 44.9421517,94.9820652 44.9421517,95.1391692 L44.9421517,134.030986 C44.9421517,134.18809 44.8130339,134.314028 44.6527497,134.314028" id="Fill-45" fill="#FFFFFF"></path>
                            <path d="M26.6592578,134.557571 C26.4989736,134.557571 26.3698558,134.431633 26.3698558,134.274529 L26.3698558,121.158574 C26.3698558,121.001471 26.4989736,120.875533 26.6592578,120.875533 C26.819542,120.875533 26.9486598,121.001471 26.9486598,121.158574 L26.9486598,134.274529 C26.9486598,134.431633 26.819542,134.557571 26.6592578,134.557571" id="Fill-47" fill="#FFFFFF"></path>
                            <path d="M35.2452755,134.557571 C35.0849913,134.557571 34.9558734,134.431633 34.9558734,134.274529 L34.9558734,108.936268 C34.9558734,108.7798 35.0849913,108.653226 35.2452755,108.653226 C35.4061957,108.653226 35.5353135,108.7798 35.5353135,108.936268 L35.5353135,134.274529 C35.5353135,134.431633 35.4061957,134.557571 35.2452755,134.557571" id="Fill-49" fill="#FFFFFF"></path>
                            <path d="M70.3344769,134.314028 C70.1741927,134.314028 70.0450748,134.18809 70.0450748,134.030986 L70.0450748,51.1901312 C70.0450748,51.0323912 70.1741927,50.9064536 70.3344769,50.9064536 C70.4947611,50.9064536 70.624515,51.0323912 70.624515,51.1901312 L70.624515,134.030986 C70.624515,134.18809 70.4947611,134.314028 70.3344769,134.314028" id="Fill-51" fill="#FFFFFF"></path>
                            <path d="M80.1127673,134.314028 C79.9524831,134.314028 79.8233653,134.18809 79.8233653,134.030986 L79.8233653,32.2486092 C79.8233653,32.0915052 79.9524831,31.9649316 80.1127673,31.9649316 C80.2730515,31.9649316 80.4021694,32.0915052 80.4021694,32.2486092 L80.4021694,134.030986 C80.4021694,134.18809 80.2730515,134.314028 80.1127673,134.314028" id="Fill-53" fill="#FFFFFF"></path>
                            <path d="M102.840622,134.405046 C102.680338,134.405046 102.55122,134.278473 102.55122,134.122005 L102.55122,32.2505809 C102.55122,32.0934769 102.680338,31.9675394 102.840622,31.9675394 C103.000906,31.9675394 103.130024,32.0934769 103.130024,32.2505809 L103.130024,134.122005 C103.130024,134.278473 103.000906,134.405046 102.840622,134.405046" id="Fill-55" fill="#FFFFFF"></path>
                            <path d="M219.010478,134.557571 C218.850194,134.557571 218.721076,134.431633 218.721076,134.274529 L218.721076,62.5734263 C218.721076,62.4163223 218.850194,62.2897487 219.010478,62.2897487 C219.170762,62.2897487 219.29988,62.4163223 219.29988,62.5734263 L219.29988,134.274529 C219.29988,134.431633 219.170762,134.557571 219.010478,134.557571" id="Fill-57" fill="#FFFFFF"></path>
                            <path d="M224.16317,134.464707 C224.002886,134.464707 223.873768,134.33877 223.873768,134.181666 L223.873768,81.4017317 C223.873768,81.2446277 224.002886,81.1186901 224.16317,81.1186901 C224.323454,81.1186901 224.452572,81.2446277 224.452572,81.4017317 L224.452572,134.181666 C224.452572,134.33877 224.323454,134.464707 224.16317,134.464707" id="Fill-59" fill="#FFFFFF"></path>
                            <path d="M237.327591,134.033276 C237.166671,134.033276 237.037553,133.907338 237.037553,133.750234 L237.037553,73.2970119 C237.037553,73.1399079 237.166671,73.0139703 237.327591,73.0139703 C237.487875,73.0139703 237.616993,73.1399079 237.616993,73.2970119 L237.616993,133.750234 C237.616993,133.907338 237.487875,134.033276 237.327591,134.033276" id="Fill-61" fill="#FFFFFF"></path>
                            <path d="M244.534083,134.035502 C244.373163,134.035502 244.244045,133.909564 244.244045,133.75246 L244.244045,90.5304259 C244.244045,90.3733219 244.373163,90.2473843 244.534083,90.2473843 C244.694368,90.2473843 244.823486,90.3733219 244.823486,90.5304259 L244.823486,133.75246 C244.823486,133.909564 244.694368,134.035502 244.534083,134.035502" id="Fill-63" fill="#FFFFFF"></path>
                            <path d="M253.097458,134.557571 C252.937174,134.557571 252.808056,134.431633 252.808056,134.274529 L252.808056,107.790745 C252.808056,107.633005 252.937174,107.507067 253.097458,107.507067 C253.257742,107.507067 253.387496,107.633005 253.387496,107.790745 L253.387496,134.274529 C253.387496,134.431633 253.257742,134.557571 253.097458,134.557571" id="Fill-65" fill="#FFFFFF"></path>
                            <path d="M260.098316,134.557571 C259.937395,134.557571 259.808278,134.431633 259.808278,134.274529 L259.808278,115.715908 C259.808278,115.558804 259.937395,115.432867 260.098316,115.432867 C260.2586,115.432867 260.387718,115.558804 260.387718,115.715908 L260.387718,134.274529 C260.387718,134.431633 260.2586,134.557571 260.098316,134.557571" id="Fill-67" fill="#FFFFFF"></path>
                        </g>
                    </g>
                </g>
                <g id="Group-5-Copy" transform="translate(332.500000, 0.000000)">
                    <mask id="mask-12" fill="white">
                        <use xlink:href="#path-11"></use>
                    </mask>
                    <use id="Rectangle-5" fill-opacity="0" fill="#FFFFFF" xlink:href="#path-11"></use>
                    <g id="Page-1" mask="url(#mask-12)">
                        <g transform="translate(-191.539062, 2.664062)">
                            <path d="M250.087051,78.6959219 L249.188888,79.9262916 L240.91984,79.9262916 L239.212055,78.7837549 L239.212055,60.3211255 L240.91984,59.4420876 L249.09893,59.4420876 L250.087051,60.8488315 L250.087051,78.6959219 Z M249.637969,109.906372 L248.200059,111.312407 L240.91984,111.312407 L239.212055,110.521911 L238.86214,94.104231 C238.807599,91.5344087 240.922673,89.4214594 243.550579,89.4214594 L248.64914,89.4214594 L249.637969,90.6525375 L249.637969,109.906372 Z M257.573394,96.4572904 L257.573394,79.455252 L257.003188,78.367965 L256.968479,54.4731505 L252.555582,50.1537523 L244.132826,50.1537523 L237.547479,50.1537523 C234.957115,50.1537523 232.857624,52.2079101 232.857624,54.7408993 L232.857624,77.9677584 L231.814962,79.3582107 L231.814962,109.025917 L230.867216,110.138704 L230.867216,149.965978 C230.867216,152.499676 232.966707,154.553125 235.557071,154.553125 L235.750445,154.553125 C238.340809,154.553125 240.4403,152.499676 240.4403,149.965978 L240.4403,123.504189 L241.378838,122.071945 L247.182896,122.071945 L249.201638,123.813729 L249.201638,150.129426 C249.201638,152.663124 251.301129,154.716573 253.890784,154.716573 C256.481148,154.716573 258.579931,152.663124 258.579931,150.129426 L258.579931,131.323447 L258.579931,110.504203 L257.573394,96.4572904 Z" id="Fill-1" fill="#FFFFFF"></path>
                            <path d="M255.316653,51.7818495 C255.727485,50.944603 252.63704,48.7282375 252.63704,48.7282375 L252.63704,46.5317052 L251.044005,46.5317052 L251.044005,48.7282375 L247.163771,51.7818495 L242.167918,51.7818495 L238.545517,48.7282375 L238.545517,46.5317052 L237.196856,46.5317052 L237.196856,48.7282375 C237.196856,48.7282375 235.889986,49.5683173 235.604529,50.0478569 C235.318364,50.5273965 233.944911,51.7818495 233.944911,51.7818495 L255.316653,51.7818495 Z" id="Fill-3" fill="#FFFFFF"></path>
                            <path d="M122.262614,47.5131677 L120.966369,49.2875351 L109.043754,49.2875351 L106.581597,47.6399588 L106.581597,21.0194893 L109.043754,19.7515781 L120.836745,19.7515781 L122.262614,21.7795277 L122.262614,47.5131677 Z M121.614491,92.5148087 L119.541209,94.5434667 L109.043754,94.5434667 L106.581597,93.4023465 L106.070183,69.3814492 C105.9951,65.8667143 108.887213,62.9781433 112.480572,62.9781433 L120.188623,62.9781433 L121.614491,64.753219 L121.614491,92.5148087 Z M133.056151,66.0015187 L133.056151,48.6089547 L132.233779,47.0407114 L132.233779,12.6314418 C132.233779,9.16699831 129.362917,6.35917698 125.821265,6.35917698 L113.67765,6.35917698 L103.831859,6.35917698 C100.290208,6.35917698 97.4193449,9.16699831 97.4193449,12.6314418 L97.4193449,46.4634222 L95.916268,48.4687053 L95.916268,91.2461891 L94.5491905,92.8505572 L94.5491905,149.830078 C94.5491905,153.294522 97.4200532,156.102343 100.961705,156.102343 L101.940617,156.102343 C105.482269,156.102343 108.352423,153.294522 108.352423,149.830078 L108.352423,112.121392 L109.705334,110.056609 L116.305556,110.056609 C117.445259,110.056609 118.546713,110.463899 119.400959,111.201979 C120.408205,112.070392 120.984786,113.320595 120.984786,114.633839 L120.984786,150.590324 C120.984786,154.054767 123.855649,156.862589 127.3973,156.862589 L128.095714,156.862589 C131.637365,156.862589 134.508228,154.054767 134.508228,150.590324 L134.508228,123.395885 L134.508228,93.377555 L133.056151,66.0015187 Z" id="Fill-5" fill="#FFFFFF"></path>
                            <g id="Group-11" stroke-width="1" fill="none" transform="translate(28.000000, 6.000266)">
                                <mask id="mask-14" fill="white">
                                    <use xlink:href="#path-13"></use>
                                </mask>
                                <g id="Clip-10"></g>
                                <path d="M297.569278,146.733881 C297.514028,146.733881 297.45807,146.728923 297.400695,146.719006 C286.719783,144.863889 275.064916,141.192613 263.691256,136.101843 C258.774735,133.901769 254.427004,131.253322 254.383796,131.228531 C252.462096,130.052702 249.5629,128.168544 246.645996,125.844512 C246.36833,125.615721 240.048607,120.369827 234.025675,112.514444 C230.073191,107.359924 214.672674,61.9736601 210.261901,48.8362579 C207.757954,61.0202475 204.402593,73.0391961 200.274444,84.6154383 C193.963929,102.286154 187.299249,114.894434 177.988956,126.76605 C172.998769,133.123314 170.44453,136.220134 166.925545,137.126797 C150.214616,141.475945 127.528921,106.337095 116.65676,89.4540426 L113.37719,84.3859393 C100.973618,65.2709376 86.9713449,43.6909466 74.8171052,5.40640189 C73.0434461,12.8027869 68.3805077,20.971252 61.8468689,32.4136198 C58.0303853,39.0960079 53.7053204,46.6701838 48.8667161,55.9471858 C30.9714593,90.2381642 -2.72168836,141.769194 -14.7880951,144.455182 C-15.3016346,144.575599 -15.827924,144.250475 -15.9440902,143.742602 C-16.0652147,143.232604 -15.7372577,142.727565 -15.2159266,142.612107 C-4.75742966,140.280992 27.4503493,92.8249865 47.1433485,55.0844395 C52.0003694,45.778396 56.3325175,38.1893451 60.1567928,31.492082 C67.7869269,18.1301392 72.826697,9.30434356 73.5725688,1.17058666 C73.6129436,0.717255267 73.9756088,0.357423472 74.4388568,0.313506993 C74.8851049,0.275965487 75.3285196,0.547255994 75.4616857,0.983587462 C87.8149663,41.4568728 102.263488,63.7260692 115.009892,83.3709019 L118.294419,88.4439636 C128.914416,104.945226 151.010779,139.25108 166.431839,135.298597 C169.338826,134.547058 171.737232,131.625196 176.451879,125.612888 C185.631131,113.91198 192.210812,101.463783 198.445535,83.9892743 C202.949099,71.3710782 206.523334,58.2216344 209.072615,44.9007747 C209.153364,44.4771932 209.518863,44.1591529 209.959444,44.1322363 C210.435442,44.0755699 210.805899,44.3709436 210.941898,44.7824836 C217.944452,65.8368935 232.103974,106.852052 235.572668,111.381116 C241.456768,119.053749 247.816866,124.334352 247.88274,124.38606 C250.706145,126.637842 253.535216,128.478792 255.406625,129.622038 C255.449833,129.648954 259.699106,132.233651 264.498044,134.382017 C275.722246,139.406204 287.216322,143.028605 297.737861,144.856806 C298.26415,144.947472 298.614773,145.437637 298.521274,145.952593 C298.438399,146.410882 298.030401,146.733881 297.569278,146.733881" id="Fill-9" fill="#FFFFFF" mask="url(#mask-14)"></path>
                                <polygon id="Path-2" fill="#FFFFFF" mask="url(#mask-14)" points="228.875671 49.4258204 228.875671 45.4385656 224.817444 44.3560572 226.152649 48.9242945"></polygon>
                            </g>
                            <g id="Group-14" stroke-width="1" fill="none" transform="translate(14.000000, 7.416927)">
                                <path d="M290.561588,135.207434 C286.708638,133.032152 280.669939,127.626175 276.308267,123.491651 C266.147171,113.864734 263.419021,107.411845 261.014347,101.717578 L260.217935,99.8475857 C258.336718,95.5203958 256.552334,91.4432466 254.875308,87.6090546 C248.230354,72.4189112 243.324876,61.2053342 240.621986,53.3400345 C238.371683,69.8094224 233.805119,79.5957139 229.72763,88.3407598 C228.704573,90.5309171 227.706076,92.6672413 226.777747,94.843232 C219.636702,111.544244 213.598003,118.23584 208.632181,122.577197 C203.436907,127.126094 191.261976,137.787173 177.562985,135.850598 C160.786406,133.4954 151.486276,113.601235 144.015439,97.6177619 C140.841018,90.8220409 137.617478,80.4761685 131.196361,59.8651732 C129.807026,55.399859 128.858348,52.2364559 127.83038,48.7989289 C126.732945,45.1326112 125.542186,41.1510866 123.653251,35.0580293 C120.915979,26.2124004 118.055912,17.2803553 115.146727,8.4687263 C114.767116,8.46164299 114.522929,8.38797664 114.345403,8.04514477 C109.308009,21.941877 96.6461082,43.3192856 75.8797494,73.029492 C74.2153533,75.4101901 72.5165746,78.0487205 70.717455,80.8402502 C59.670131,97.984677 44.5383003,121.463702 2.54738246,143.232817 C1.92568981,143.555815 1.14962652,143.321358 0.823343136,142.702986 C0.493551324,142.087447 0.735632548,141.323158 1.35943025,141.00016 C42.749706,119.542001 57.6689262,96.3902254 68.5611779,79.4852144 C70.3757345,76.6738514 72.0871435,74.0154878 73.7789054,71.5958314 C97.674778,37.4054359 110.729622,14.4442008 113.687223,1.39533987 C113.826858,0.781217494 114.358034,0.33071942 115.044281,0.414302396 C116.142418,0.507801996 116.199956,1.37054831 116.272229,2.4642103 C116.299595,2.90054177 116.354327,3.73353821 116.414671,4.55874301 C116.53887,4.68978412 116.636404,4.84986677 116.693942,5.02694934 C119.915376,14.7126579 123.077168,24.5683658 126.098622,34.3185325 C127.987557,40.4215064 129.183228,44.4108226 130.280663,48.0849319 C131.306526,51.5139589 132.252397,54.6681538 133.604543,59.0194269 C140.024958,79.6254638 143.231658,89.9175031 146.253112,96.3859755 C153.547124,111.989784 162.523075,131.191202 177.921546,133.352317 C190.45574,135.09906 202.004769,125.004645 206.937612,120.690205 C211.688719,116.533014 217.483231,110.097834 224.422191,93.8629029 C225.363151,91.6621206 226.371472,89.5010049 227.407158,87.283931 C231.89373,77.6669305 236.976033,66.7692687 238.787782,46.830479 C238.845321,46.2121066 239.347025,45.7269004 239.975735,45.6844005 C240.64444,45.6305674 241.166494,46.0591073 241.306129,46.665438 C243.017538,54.1390311 248.667503,67.0547258 257.22104,86.6081839 C258.898066,90.4423759 260.68245,94.5230667 262.563667,98.8523816 L263.372008,100.746457 C265.794925,106.480391 268.300641,112.408407 278.077214,121.673367 C284.095564,127.379676 289.036828,131.445492 291.988815,133.122818 C292.268086,133.325401 304.812103,143.013234 312.727107,143.109567 C313.433703,143.119484 313.997858,143.691107 313.990139,144.385979 C313.980316,145.078017 313.411249,145.63264 312.712371,145.63264 C303.913947,145.524265 291.102587,135.628891 290.561588,135.207434 Z" id="Fill-12" fill="#FFFFFF"></path>
                            </g>
                            <path d="M95.9174013,150.524086 C95.204821,150.524086 94.6275318,149.960255 94.6275318,149.262549 L94.6275318,26.7546981 C94.6275318,26.0569928 95.204821,25.4931619 95.9174013,25.4931619 C96.6299816,25.4931619 97.2072708,26.0569928 97.2072708,26.7546981 L97.2072708,149.262549 C97.2072708,149.960255 96.6299816,150.524086 95.9174013,150.524086" id="Fill-15" fill="#FFFFFF"></path>
                            <path d="M123.429517,130.120135 C122.716937,130.120135 122.139648,129.555596 122.139648,128.858599 L122.139648,44.0764199 C122.139648,43.3787146 122.716937,42.8148836 123.429517,42.8148836 C124.142097,42.8148836 124.719387,43.3787146 124.719387,44.0764199 L124.719387,128.858599 C124.719387,129.555596 124.142097,130.120135 123.429517,130.120135" id="Fill-17" fill="#FFFFFF"></path>
                            <path d="M120.837595,50.5488589 C120.125015,50.5488589 119.547725,49.985028 119.547725,49.2873226 L119.547725,19.7520739 C119.547725,19.0550769 120.125015,18.4905376 120.837595,18.4905376 C121.550175,18.4905376 122.127464,19.0550769 122.127464,19.7520739 L122.127464,49.2873226 C122.127464,49.985028 121.550175,50.5488589 120.837595,50.5488589" id="Fill-19" fill="#FFFFFF"></path>
                            <path d="M209.956172,149.577756 C209.777673,149.577756 209.633882,149.437507 209.633882,149.262549 L209.633882,125.490276 C209.633882,125.315318 209.777673,125.175069 209.956172,125.175069 C210.134671,125.175069 210.278462,125.315318 210.278462,125.490276 L210.278462,149.262549 C210.278462,149.437507 210.134671,149.577756 209.956172,149.577756" id="Fill-23" fill="#FFFFFF"></path>
                            <path d="M174.143984,149.577756 C173.965484,149.577756 173.821693,149.437507 173.821693,149.262549 L173.821693,132.189664 C173.821693,132.014706 173.965484,131.874457 174.143984,131.874457 C174.322483,131.874457 174.466274,132.014706 174.466274,132.189664 L174.466274,149.262549 C174.466274,149.437507 174.322483,149.577756 174.143984,149.577756" id="Fill-25" fill="#FFFFFF"></path>
                            <path d="M220.402273,149.577756 C220.223774,149.577756 220.079983,149.437507 220.079983,149.262549 L220.079983,105.115863 C220.079983,104.940906 220.223774,104.800656 220.402273,104.800656 C220.580773,104.800656 220.724564,104.940906 220.724564,105.115863 L220.724564,149.262549 C220.724564,149.437507 220.580773,149.577756 220.402273,149.577756" id="Fill-31" fill="#FFFFFF"></path>
                            <path d="M225.432552,149.577756 C225.254053,149.577756 225.110262,149.437507 225.110262,149.262549 L225.110262,95.5109042 C225.110262,95.3359466 225.254053,95.1956972 225.432552,95.1956972 C225.611759,95.1956972 225.75555,95.3359466 225.75555,95.5109042 L225.75555,149.262549 C225.75555,149.437507 225.611759,149.577756 225.432552,149.577756" id="Fill-33" fill="#FFFFFF"></path>
                            <path d="M164.698045,149.577756 C164.518837,149.577756 164.375046,149.437507 164.375046,149.262549 L164.375046,118.0096 C164.375046,117.834642 164.518837,117.694393 164.698045,117.694393 C164.876544,117.694393 165.020335,117.834642 165.020335,118.0096 L165.020335,149.262549 C165.020335,149.437507 164.876544,149.577756 164.698045,149.577756" id="Fill-35" fill="#FFFFFF"></path>
                            <path d="M155.110723,149.577756 C154.932224,149.577756 154.788433,149.437507 154.788433,149.262549 L154.788433,99.0298891 C154.788433,98.8549316 154.932224,98.7146822 155.110723,98.7146822 C155.289223,98.7146822 155.433014,98.8549316 155.433014,99.0298891 L155.433014,149.262549 C155.433014,149.437507 155.289223,149.577756 155.110723,149.577756" id="Fill-37" fill="#FFFFFF"></path>
                            <path d="M144.664551,149.577756 C144.486052,149.577756 144.342261,149.437507 144.342261,149.262549 L144.342261,64.8940351 C144.342261,64.7190775 144.486052,64.5788281 144.664551,64.5788281 C144.84305,64.5788281 144.986842,64.7190775 144.986842,64.8940351 L144.986842,149.262549 C144.986842,149.437507 144.84305,149.577756 144.664551,149.577756" id="Fill-39" fill="#FFFFFF"></path>
                            <path d="M135.465253,149.577756 C135.286754,149.577756 135.142963,149.437507 135.142963,149.262549 L135.142963,34.0944167 C135.142963,33.9194592 135.286754,33.7792098 135.465253,33.7792098 C135.643752,33.7792098 135.787543,33.9194592 135.787543,34.0944167 L135.787543,149.262549 C135.787543,149.437507 135.643752,149.577756 135.465253,149.577756" id="Fill-41" fill="#FFFFFF"></path>
                            <path d="M69.0050289,149.577756 C68.8258213,149.577756 68.6820303,149.437507 68.6820303,149.262549 L68.6820303,74.417536 C68.6820303,74.2425784 68.8258213,74.1016207 69.0050289,74.1016207 C69.1835281,74.1016207 69.3273192,74.2425784 69.3273192,74.417536 L69.3273192,149.262549 C69.3273192,149.437507 69.1835281,149.577756 69.0050289,149.577756" id="Fill-43" fill="#FFFFFF"></path>
                            <path d="M49.7271821,149.577756 C49.5486829,149.577756 49.4048918,149.437507 49.4048918,149.262549 L49.4048918,105.950985 C49.4048918,105.776027 49.5486829,105.635778 49.7271821,105.635778 C49.9056814,105.635778 50.0494724,105.776027 50.0494724,105.950985 L50.0494724,149.262549 C50.0494724,149.437507 49.9056814,149.577756 49.7271821,149.577756" id="Fill-45" fill="#FFFFFF"></path>
                            <path d="M29.6888719,149.848976 C29.5103727,149.848976 29.3665817,149.708727 29.3665817,149.533769 L29.3665817,134.92729 C29.3665817,134.752332 29.5103727,134.612083 29.6888719,134.612083 C29.8673712,134.612083 30.0111622,134.752332 30.0111622,134.92729 L30.0111622,149.533769 C30.0111622,149.708727 29.8673712,149.848976 29.6888719,149.848976" id="Fill-47" fill="#FFFFFF"></path>
                            <path d="M39.2506227,149.848976 C39.0721235,149.848976 38.9283324,149.708727 38.9283324,149.533769 L38.9283324,121.316015 C38.9283324,121.141765 39.0721235,121.000808 39.2506227,121.000808 C39.4298303,121.000808 39.5736214,121.141765 39.5736214,121.316015 L39.5736214,149.533769 C39.5736214,149.708727 39.4298303,149.848976 39.2506227,149.848976" id="Fill-49" fill="#FFFFFF"></path>
                            <path d="M78.3274349,149.577756 C78.1489356,149.577756 78.0051446,149.437507 78.0051446,149.262549 L78.0051446,57.0074855 C78.0051446,56.8318195 78.1489356,56.6915701 78.3274349,56.6915701 C78.5059341,56.6915701 78.6504335,56.8318195 78.6504335,57.0074855 L78.6504335,149.262549 C78.6504335,149.437507 78.5059341,149.577756 78.3274349,149.577756" id="Fill-51" fill="#FFFFFF"></path>
                            <path d="M89.2169508,149.577756 C89.0384516,149.577756 88.8946605,149.437507 88.8946605,149.262549 L88.8946605,35.913409 C88.8946605,35.7384514 89.0384516,35.5974937 89.2169508,35.5974937 C89.39545,35.5974937 89.5392411,35.7384514 89.5392411,35.913409 L89.5392411,149.262549 C89.5392411,149.437507 89.39545,149.577756 89.2169508,149.577756" id="Fill-53" fill="#FFFFFF"></path>
                            <path d="M114.527647,149.679118 C114.349148,149.679118 114.205356,149.538161 114.205356,149.363911 L114.205356,35.9156048 C114.205356,35.7406472 114.349148,35.6003978 114.527647,35.6003978 C114.706146,35.6003978 114.849937,35.7406472 114.849937,35.9156048 L114.849937,149.363911 C114.849937,149.538161 114.706146,149.679118 114.527647,149.679118" id="Fill-55" fill="#FFFFFF"></path>
                            <path d="M243.89929,149.848976 C243.72079,149.848976 243.576999,149.708727 243.576999,149.533769 L243.576999,69.6844021 C243.576999,69.5094445 243.72079,69.3684868 243.89929,69.3684868 C244.077789,69.3684868 244.22158,69.5094445 244.22158,69.6844021 L244.22158,149.533769 C244.22158,149.708727 244.077789,149.848976 243.89929,149.848976" id="Fill-57" fill="#FFFFFF"></path>
                            <path d="M249.637544,149.74556 C249.459045,149.74556 249.315254,149.60531 249.315254,149.430353 L249.315254,90.6523958 C249.315254,90.4774382 249.459045,90.3371888 249.637544,90.3371888 C249.816043,90.3371888 249.959834,90.4774382 249.959834,90.6523958 L249.959834,149.430353 C249.959834,149.60531 249.816043,149.74556 249.637544,149.74556" id="Fill-59" fill="#FFFFFF"></path>
                            <path d="M264.297998,149.265099 C264.118791,149.265099 263.975,149.12485 263.975,148.949892 L263.975,81.6266385 C263.975,81.451681 264.118791,81.3114316 264.297998,81.3114316 C264.476497,81.3114316 264.620288,81.451681 264.620288,81.6266385 L264.620288,148.949892 C264.620288,149.12485 264.476497,149.265099 264.297998,149.265099" id="Fill-61" fill="#FFFFFF"></path>
                            <path d="M272.323451,149.267579 C272.144244,149.267579 272.000453,149.127329 272.000453,148.952372 L272.000453,100.818494 C272.000453,100.643536 272.144244,100.503287 272.323451,100.503287 C272.501951,100.503287 272.645742,100.643536 272.645742,100.818494 L272.645742,148.952372 C272.645742,149.127329 272.501951,149.267579 272.323451,149.267579" id="Fill-63" fill="#FFFFFF"></path>
                            <path d="M281.859986,149.848976 C281.681486,149.848976 281.537695,149.708727 281.537695,149.533769 L281.537695,120.040312 C281.537695,119.864646 281.681486,119.724397 281.859986,119.724397 C282.038485,119.724397 282.182984,119.864646 282.182984,120.040312 L282.182984,149.533769 C282.182984,149.708727 282.038485,149.848976 281.859986,149.848976" id="Fill-65" fill="#FFFFFF"></path>
                            <path d="M289.656436,149.848976 C289.477228,149.848976 289.333437,149.708727 289.333437,149.533769 L289.333437,128.866107 C289.333437,128.69115 289.477228,128.5509 289.656436,128.5509 C289.834935,128.5509 289.978726,128.69115 289.978726,128.866107 L289.978726,149.533769 C289.978726,149.708727 289.834935,149.848976 289.656436,149.848976" id="Fill-67" fill="#FFFFFF"></path>
                        </g>
                    </g>
                </g>
                <text id="Join-us-in-San-Franc" font-family="Comfortaa-Bold, Comfortaa" font-size="12" font-weight="bold" fill="#FFFFFF">
                    <tspan x="170.239746" y="54">Join us in San Francisco</tspan>
                </text>
                <g id="Group-7" transform="translate(165.000000, 37.000000)">
                    <mask id="mask-16" fill="white">
                        <use xlink:href="#path-15"></use>
                    </mask>
                    <g id="Path-5"></g>
                    <path d="M149.242187,12.8125 L177.786681,12.8125 L177.786681,64.9944282 L10.9085007,64.9944282 L10.9085007,84.6260762 L24.0515173,84.6260762" id="Path-3" stroke="#FF5757" stroke-width="2" stroke-dasharray="5,2" mask="url(#mask-16)"></path>
                </g>
            </g>
        </g>
    </g>
</svg>